<svg xmlns="http://www.w3.org/2000/svg" width="182px" height="48px" viewBox="0 0 167.62 48">
  <defs>
    <style>.cls-1{fill:#6d3075;}</style>
  </defs>
  <title>knowbility-logo</title>
  <g id="Layer_2" data-name="Layer 2">
    <g id="Layer_1-2" data-name="Layer 1">
      <path class="cls-1" d="M44.6,24.45l-11.24,9v-9H29.84v18h3.51v-5.1l4-3.22c.64.79,1.21,1.53,1.77,2.25,3.09,4,5,6.36,7.88,6.36a6.71,6.71,0,0,0,1.72-.25l.21-.05-.09-3.2-.32.07a3.06,3.06,0,0,1-.68.1c-1.83,0-4.32-2.38-7.83-7.48l9.39-7.5Z"/><path class="cls-1" d="M59.3,28.5A6.94,6.94,0,0,0,54,30.72l-.11-1.93H50.67V42.46h3.51V35.14a4.59,4.59,0,0,1,4.3-3.29,2.39,2.39,0,0,1,2.57,2.41v8.2H64.5V33.84A5,5,0,0,0,59.3,28.5Z"/><path class="cls-1" d="M73.11,28.39c-4.38,0-7.2,2.89-7.2,7.36A6.87,6.87,0,0,0,73.19,43c4.39,0,7.23-2.89,7.23-7.36S77.48,28.39,73.11,28.39Zm.05,11.19c-2.24,0-3.7-1.57-3.7-4a3.43,3.43,0,0,1,3.64-3.75c2.28,0,3.75,1.57,3.75,4A3.45,3.45,0,0,1,73.16,39.58Z"/><path class="cls-1" d="M98.12,37.82l-.23.51c-1.39-3.65-2.51-6.64-3.52-9.37l-.07-.18H90.77L90.7,29c-1.14,3.08-2.32,6.26-3.5,9.39L87,37.84l-.74-1.93c-.87-2.27-1.76-4.62-2.62-6.94l-.07-.18H79.92l5.55,13.67h3.44l3.63-9.05,1.35,3.35c.73,1.82,1.48,3.7,2.23,5.53l.07.17h3.44l5.55-13.67h-3.61Z"/><path class="cls-1" d="M114.06,28.47a6.48,6.48,0,0,0-4.3,1.57V24.45h-3.51v18h3.3l0-.24c0-.32.07-.64.1-1a5.76,5.76,0,0,0,4.12,1.6c3.33,0,6.71-2.48,6.71-7.23a7.41,7.41,0,0,0-1.93-5.35A6.26,6.26,0,0,0,114.06,28.47Zm-.81,11.11c-2.18,0-3.49-1.48-3.49-4s1.24-3.8,3.41-3.8,3.75,1.57,3.75,4A3.44,3.44,0,0,1,113.24,39.58Z"/><rect class="cls-1" x="122.4" y="28.79" width="3.51" height="13.67"/><path class="cls-1" d="M124.09,22.67A2.18,2.18,0,0,0,121.79,25a2.22,2.22,0,0,0,2.32,2.27,2.29,2.29,0,0,0,0-4.59Z"/><path class="cls-1" d="M133.92,39.11c-1.54,0-2-.53-2-2.49V24.45h-3.51V36.72c0,4,1.56,5.89,4.76,5.89.5,0,1.3-.06,1.74-.11l.24,0V39l-.32.05C134.74,39.08,134.14,39.11,133.92,39.11Z"/><path class="cls-1" d="M138.71,22.67A2.18,2.18,0,0,0,136.42,25a2.22,2.22,0,0,0,2.32,2.27,2.29,2.29,0,0,0,0-4.59Z"/><rect class="cls-1" x="137.03" y="28.79" width="3.51" height="13.67"/><path class="cls-1" d="M149.37,39.11c-1.54,0-2-.53-2-2.49V32.24h2.39V28.79h-2.39V24.45H143.9v4.33h-1.84v3.46h1.84v4.48c0,4,1.56,5.89,4.76,5.89.5,0,1.3-.06,1.74-.11l.24,0V39l-.32.05C150.19,39.08,149.59,39.11,149.37,39.11Z"/><path class="cls-1" d="M164,28.79l-.08.14-2.11,4c-1,1.85-2,3.76-3,5.63-1.49-3.18-3-6.43-4.42-9.58l-.1-.22h-3.71L157,41.92,153.83,48h3.66l10.13-19.21Z"/><path class="cls-1" d="M25.72,12.86A12.86,12.86,0,1,0,11.33,25.63V41a1.53,1.53,0,0,0,3.05,0V25.63A12.88,12.88,0,0,0,25.72,12.86ZM14.39,22.54V19.19l4.13-4.13a1.53,1.53,0,0,0-2.16-2.16l-2,2V13.49l3-3a1.53,1.53,0,0,0-2.16-2.16l-3.47,3.47v0a1.53,1.53,0,0,0-.18.22l-.07.13,0,0L9.37,10a1.53,1.53,0,1,0-2.16,2.16l4.13,4.13v6.2a9.81,9.81,0,1,1,3.05,0Z"/>
    </g>
  </g>
</svg>
